<?xml version="1.0" encoding="utf-8"?>
<!-- Generator: Adobe Illustrator 24.0.2, SVG Export Plug-In . SVG Version: 6.00 Build 0)  -->
<svg version="1.1" id="Layer_1" xmlns="http://www.w3.org/2000/svg" xmlns:xlink="http://www.w3.org/1999/xlink" x="0px" y="0px"
	 viewBox="0 0 1280 1024" style="enable-background:new 0 0 1280 1024;" xml:space="preserve">
<style type="text/css">
	.st0{fill:url(#SVGID_1_);}
	.st1{fill:url(#SVGID_2_);}
	.st2{fill:url(#SVGID_3_);}
	.st3{fill:url(#SVGID_4_);}
	.st4{fill:url(#SVGID_5_);}
	.st5{fill:url(#SVGID_6_);}
	.st6{fill:url(#SVGID_7_);}
	.st7{fill:url(#SVGID_8_);}
	.st8{fill:url(#SVGID_9_);}
	.st9{fill:url(#SVGID_10_);}
	.st10{fill:url(#SVGID_11_);}
	.st11{fill:url(#SVGID_12_);}
	.st12{fill:url(#SVGID_13_);}
</style>
<g>
	<linearGradient id="SVGID_1_" gradientUnits="userSpaceOnUse" x1="0.5" y1="509" x2="1279.5" y2="509">
		<stop  offset="0" style="stop-color:#0000FF"/>
		<stop  offset="1" style="stop-color:#CD315C"/>
	</linearGradient>
	<rect x="0.5" y="0.5" class="st0" width="1279" height="1017"/>
	<path d="M1279,1v1016H1V1H1279 M1280,0H0v1018h1280V0L1280,0z"/>
</g>
<g>
	<g>
		
			<linearGradient id="SVGID_2_" gradientUnits="userSpaceOnUse" x1="808.6248" y1="402.378" x2="818.9861" y2="412.7394" gradientTransform="matrix(0.9155 0.0145 0.0145 0.9155 14.3684 87.0799)">
			<stop  offset="1.198083e-07" style="stop-color:#8B6AFF"/>
			<stop  offset="0.1315" style="stop-color:#926FFC"/>
			<stop  offset="0.3293" style="stop-color:#A77BF6"/>
			<stop  offset="0.5686" style="stop-color:#C990EA"/>
			<stop  offset="0.8383" style="stop-color:#F7ACDB"/>
			<stop  offset="0.8804" style="stop-color:#FFB1D8"/>
		</linearGradient>
		<path class="st1" d="M497.8,922.4c-7.15,0-14.47-3.22-20.1-8.85l-7.23-7.23c-10.32-10.32-11.82-25.61-3.35-34.09
			c4.31-4.31,6.32-10.38,5.68-17.11c-0.64-6.69-3.85-13.22-9.02-18.4l-7.23-7.23c-5.81-5.81-13.39-9.14-20.8-9.14
			c-5.74,0-10.96,2.06-14.7,5.79l-30.91,30.91c-3.55,3.55-8.52,5.5-13.99,5.5c-7.15,0-14.47-3.22-20.1-8.85l-7.23-7.23
			c-5.01-5.01-8.11-11.33-8.74-17.79c-0.62-6.42,1.3-12.21,5.39-16.3l135.56-135.56c4.31-4.31,6.32-10.38,5.68-17.11
			c-0.64-6.69-3.85-13.22-9.02-18.4l-5.92-5.92c-5.81-5.81-13.39-9.14-20.8-9.14c-5.74,0-10.96,2.06-14.7,5.79l-63.44,63.44
			c-3.55,3.55-8.52,5.5-13.99,5.5c-7.15,0-14.47-3.22-20.1-8.85l-7.23-7.23c-5.01-5.01-8.11-11.33-8.74-17.79
			c-0.62-6.42,1.3-12.21,5.39-16.3L850.87,128.1c3.55-3.55,8.52-5.5,13.99-5.5c7.15,0,14.47,3.22,20.1,8.85l7.23,7.23
			c10.32,10.32,11.82,25.61,3.35,34.09L722.02,346.29c-8.87,8.87-7.36,24.79,3.35,35.5l5.92,5.92c5.81,5.81,13.39,9.14,20.8,9.14
			c5.74,0,10.96-2.06,14.7-5.79l7.05-7.05c3.55-3.55,8.52-5.5,13.99-5.5c7.15,0,14.47,3.23,20.1,8.85l7.23,7.23
			c5.81,5.81,13.39,9.14,20.8,9.14c5.74,0,10.96-2.06,14.7-5.79l300.41-300.41c3.55-3.55,8.52-5.5,13.99-5.5
			c7.15,0,14.47,3.22,20.1,8.85l7.23,7.23c5.01,5.01,8.12,11.33,8.74,17.79c0.62,6.42-1.3,12.21-5.39,16.3L895.88,442.06
			c-4.31,4.31-6.32,10.38-5.68,17.11c0.64,6.69,3.85,13.22,9.02,18.4l7.23,7.23c5.01,5.01,8.12,11.33,8.74,17.79
			c0.62,6.42-1.3,12.21-5.39,16.3l-77.54,77.54c-4.31,4.31-6.33,10.38-5.68,17.11c0.64,6.69,3.85,13.22,9.02,18.4l7.23,7.23
			c5.01,5.01,8.11,11.33,8.74,17.79c0.62,6.42-1.3,12.21-5.39,16.3L663.45,856c-3.55,3.55-8.52,5.5-13.99,5.5
			c-7.15,0-14.47-3.22-20.1-8.85l-7.23-7.23c-5.81-5.81-13.39-9.14-20.8-9.14c-5.74,0-10.96,2.06-14.7,5.79l-74.83,74.83
			C508.25,920.45,503.28,922.4,497.8,922.4z"/>
		<path d="M1165.07,92.52c7.02,0,14.21,3.17,19.74,8.7l7.23,7.23c4.93,4.93,7.98,11.14,8.59,17.48c0.6,6.27-1.26,11.92-5.25,15.9
			L895.53,441.71c-9.06,9.06-7.56,25.31,3.35,36.21l7.23,7.23c4.93,4.93,7.98,11.14,8.59,17.48c0.6,6.27-1.26,11.92-5.25,15.9
			l-77.54,77.54c-9.06,9.06-7.56,25.3,3.35,36.21l7.23,7.23c4.93,4.93,7.98,11.14,8.59,17.48c0.6,6.27-1.26,11.92-5.25,15.9
			L663.1,855.64c-3.45,3.45-8.3,5.35-13.64,5.35c-7.02,0-14.21-3.17-19.74-8.7l-7.23-7.23c-5.9-5.9-13.61-9.29-21.16-9.29
			c-5.88,0-11.22,2.11-15.05,5.94l-74.83,74.83c-3.45,3.45-8.3,5.35-13.64,5.35c-7.02,0-14.21-3.17-19.74-8.7l-7.23-7.23
			c-4.93-4.93-7.98-11.14-8.59-17.48c-0.6-6.27,1.26-11.92,5.25-15.9c9.06-9.06,7.56-25.31-3.35-36.21l-7.23-7.23
			c-5.9-5.9-13.61-9.29-21.16-9.29c-5.88,0-11.22,2.11-15.05,5.94l-30.91,30.91c-3.45,3.45-8.3,5.35-13.64,5.35
			c-7.02,0-14.21-3.17-19.74-8.7l-7.23-7.23c-10.13-10.13-11.63-25.1-3.35-33.38l135.56-135.56c9.06-9.06,7.56-25.31-3.35-36.21
			l-5.92-5.92c-5.9-5.9-13.61-9.29-21.16-9.29c-5.88,0-11.22,2.11-15.05,5.94l-63.44,63.44c-3.45,3.45-8.3,5.35-13.64,5.35
			c-7.02,0-14.21-3.17-19.74-8.7l-7.23-7.23c-10.13-10.13-11.63-25.1-3.35-33.38l522.73-522.73c3.45-3.45,8.3-5.36,13.64-5.35
			c7.02,0,14.21,3.17,19.74,8.7l7.23,7.23c10.13,10.13,11.63,25.1,3.35,33.38L721.67,345.93c-9.06,9.06-7.56,25.31,3.35,36.21
			l5.92,5.92c5.9,5.9,13.61,9.29,21.16,9.29c5.88,0,11.22-2.11,15.05-5.94l7.05-7.05c3.45-3.45,8.3-5.36,13.64-5.35
			c7.02,0,14.21,3.17,19.74,8.7l7.23,7.23c5.9,5.9,13.61,9.29,21.16,9.29c5.88,0,11.22-2.11,15.05-5.94l300.41-300.41
			C1154.88,94.43,1159.73,92.52,1165.07,92.52 M1165.07,91.52c-5.44,0-10.55,1.85-14.35,5.65L850.31,397.58
			c-3.8,3.8-8.91,5.65-14.35,5.65c-7,0-14.52-3.07-20.45-8.99l-7.23-7.23c-5.93-5.93-13.45-8.99-20.45-8.99
			c-5.44,0-10.55,1.85-14.35,5.65l-7.05,7.05c-3.8,3.8-8.91,5.65-14.35,5.65c-7,0-14.52-3.07-20.45-8.99l-5.92-5.92
			c-10.53-10.53-12.03-26.11-3.35-34.8L895.9,173.12c8.68-8.68,7.19-24.26-3.35-34.8l-7.23-7.23c-5.93-5.93-13.45-8.99-20.45-8.99
			c-5.44,0-10.55,1.85-14.35,5.65L327.79,650.47c-8.68,8.68-7.19,24.26,3.35,34.8l7.23,7.23c5.93,5.93,13.45,8.99,20.45,8.99
			c5.44,0,10.55-1.85,14.35-5.65l63.44-63.44c3.8-3.8,8.91-5.65,14.35-5.65c7,0,14.52,3.07,20.45,8.99l5.92,5.92
			c10.53,10.53,12.03,26.11,3.35,34.8L345.11,812.03c-8.68,8.68-7.19,24.26,3.35,34.8l7.23,7.23c5.93,5.93,13.45,8.99,20.45,8.99
			c5.44,0,10.55-1.85,14.35-5.65l30.91-30.91c3.8-3.8,8.91-5.65,14.35-5.65c7,0,14.52,3.07,20.45,8.99l7.23,7.23
			c10.53,10.53,12.03,26.11,3.35,34.8h0c-8.68,8.68-7.19,24.26,3.35,34.8l7.23,7.23c5.93,5.93,13.45,8.99,20.45,8.99
			c5.44,0,10.55-1.85,14.35-5.65l74.83-74.83c3.8-3.8,8.91-5.65,14.35-5.65c7,0,14.52,3.07,20.45,8.99l7.23,7.23
			c5.93,5.93,13.45,8.99,20.45,8.99c5.44,0,10.55-1.85,14.35-5.65l182.74-182.74c8.68-8.68,7.19-24.26-3.35-34.8l-7.23-7.23
			c-10.53-10.53-12.03-26.11-3.35-34.8l77.54-77.54c8.68-8.68,7.19-24.26-3.35-34.8l-7.23-7.23c-10.53-10.53-12.03-26.11-3.35-34.8
			l299.87-299.87c8.68-8.68,7.19-24.26-3.35-34.8l-7.23-7.23C1179.59,94.59,1172.06,91.52,1165.07,91.52L1165.07,91.52z"/>
	</g>
	<g>
		
			<linearGradient id="SVGID_3_" gradientUnits="userSpaceOnUse" x1="760.5625" y1="50.3705" x2="806.4448" y2="96.2528" gradientTransform="matrix(0.9147 -0.0168 -0.0168 0.9147 11.0173 123.5511)">
			<stop  offset="1.198083e-07" style="stop-color:#8B6AFF"/>
			<stop  offset="0.1315" style="stop-color:#926FFC"/>
			<stop  offset="0.3293" style="stop-color:#A77BF6"/>
			<stop  offset="0.5686" style="stop-color:#C990EA"/>
			<stop  offset="0.8383" style="stop-color:#F7ACDB"/>
			<stop  offset="0.8804" style="stop-color:#FFB1D8"/>
		</linearGradient>
		<path class="st2" d="M729.21,212.92c-2.28,0-4.58-0.99-6.31-2.72L693.7,181c-1.61-1.61-2.57-3.67-2.7-5.81
			c-0.13-2.11,0.56-4.04,1.96-5.44l25.79-25.79c1.27-1.27,3.03-1.97,4.94-1.97c2.28,0,4.58,0.99,6.3,2.72l29.21,29.21
			c1.61,1.61,2.57,3.67,2.7,5.81c0.13,2.11-0.56,4.04-1.96,5.44l-25.79,25.79C732.88,212.22,731.13,212.92,729.21,212.92
			L729.21,212.92z"/>
		<path d="M723.69,142.49c2.15,0,4.32,0.94,5.95,2.57l29.21,29.21c3.11,3.11,3.44,7.84,0.74,10.54l-25.79,25.79
			c-1.18,1.18-2.81,1.83-4.59,1.83c-2.15,0-4.32-0.94-5.95-2.57l-29.21-29.21c-3.11-3.11-3.44-7.84-0.74-10.54l25.79-25.79
			C720.28,143.13,721.91,142.49,723.69,142.49 M723.69,141.49c-1.98,0-3.87,0.7-5.3,2.12l-25.79,25.79
			c-3.1,3.1-2.76,8.45,0.74,11.96l29.21,29.21c1.9,1.9,4.33,2.86,6.66,2.86c1.98,0,3.87-0.7,5.3-2.12l25.79-25.79
			c3.1-3.1,2.76-8.45-0.74-11.96l-29.21-29.21C728.45,142.45,726.02,141.49,723.69,141.49L723.69,141.49z"/>
	</g>
	<g>
		
			<linearGradient id="SVGID_4_" gradientUnits="userSpaceOnUse" x1="243.1568" y1="272.6438" x2="289.039" y2="318.526" gradientTransform="matrix(0.9147 -0.0168 -0.0168 0.9147 11.0173 123.5511)">
			<stop  offset="1.198083e-07" style="stop-color:#8B6AFF"/>
			<stop  offset="0.1315" style="stop-color:#926FFC"/>
			<stop  offset="0.3293" style="stop-color:#A77BF6"/>
			<stop  offset="0.5686" style="stop-color:#C990EA"/>
			<stop  offset="0.8383" style="stop-color:#F7ACDB"/>
			<stop  offset="0.8804" style="stop-color:#FFB1D8"/>
		</linearGradient>
		<path class="st3" d="M252.21,424.92c-2.28,0-4.58-0.99-6.31-2.72L216.7,393c-1.61-1.61-2.57-3.67-2.7-5.81
			c-0.13-2.11,0.56-4.04,1.96-5.44l25.79-25.79c1.27-1.27,3.03-1.97,4.94-1.97c2.28,0,4.58,0.99,6.3,2.72l29.21,29.21
			c1.61,1.61,2.57,3.67,2.7,5.81c0.13,2.11-0.56,4.04-1.96,5.44l-25.79,25.79C255.88,424.22,254.13,424.92,252.21,424.92
			L252.21,424.92z"/>
		<path d="M246.69,354.49c2.15,0,4.32,0.94,5.95,2.57l29.21,29.21c3.11,3.11,3.44,7.84,0.74,10.54l-25.79,25.79
			c-1.18,1.18-2.81,1.83-4.59,1.83c-2.15,0-4.32-0.94-5.95-2.57l-29.21-29.21c-3.11-3.11-3.44-7.84-0.74-10.54l25.79-25.79
			C243.28,355.13,244.91,354.49,246.69,354.49 M246.69,353.49c-1.98,0-3.87,0.7-5.3,2.12l-25.79,25.79
			c-3.1,3.1-2.76,8.45,0.74,11.96l29.21,29.21c1.9,1.9,4.33,2.86,6.66,2.86c1.98,0,3.87-0.7,5.3-2.12l25.79-25.79
			c3.1-3.1,2.76-8.45-0.74-11.96l-29.21-29.21C251.45,354.45,249.02,353.49,246.69,353.49L246.69,353.49z"/>
	</g>
	<g>
		
			<linearGradient id="SVGID_5_" gradientUnits="userSpaceOnUse" x1="471.1117" y1="64.7356" x2="516.9939" y2="110.6179" gradientTransform="matrix(0.9147 -0.0168 -0.0168 0.9147 11.0173 123.5511)">
			<stop  offset="1.198083e-07" style="stop-color:#8B6AFF"/>
			<stop  offset="0.1315" style="stop-color:#926FFC"/>
			<stop  offset="0.3293" style="stop-color:#A77BF6"/>
			<stop  offset="0.5686" style="stop-color:#C990EA"/>
			<stop  offset="0.8383" style="stop-color:#F7ACDB"/>
			<stop  offset="0.8804" style="stop-color:#FFB1D8"/>
		</linearGradient>
		<path class="st4" d="M464.21,230.92c-2.28,0-4.58-0.99-6.31-2.72L428.7,199c-1.61-1.61-2.57-3.67-2.7-5.81
			c-0.13-2.11,0.56-4.04,1.96-5.44l25.79-25.79c1.27-1.27,3.03-1.97,4.94-1.97c2.28,0,4.58,0.99,6.3,2.72l29.21,29.21
			c1.61,1.61,2.57,3.67,2.7,5.81c0.13,2.11-0.56,4.04-1.96,5.44l-25.79,25.79C467.88,230.22,466.13,230.92,464.21,230.92
			L464.21,230.92z"/>
		<path d="M458.69,160.49c2.15,0,4.32,0.94,5.95,2.57l29.21,29.21c3.11,3.11,3.44,7.84,0.74,10.54l-25.79,25.79
			c-1.18,1.18-2.81,1.83-4.59,1.83c-2.15,0-4.32-0.94-5.95-2.57l-29.21-29.21c-3.11-3.11-3.44-7.84-0.74-10.54l25.79-25.79
			C455.28,161.13,456.91,160.49,458.69,160.49 M458.69,159.49c-1.98,0-3.87,0.7-5.3,2.12l-25.79,25.79
			c-3.1,3.1-2.76,8.45,0.74,11.96l29.21,29.21c1.9,1.9,4.33,2.86,6.66,2.86c1.98,0,3.87-0.7,5.3-2.12l25.79-25.79
			c3.1-3.1,2.76-8.45-0.74-11.96l-29.21-29.21C463.45,160.45,461.02,159.49,458.69,159.49L458.69,159.49z"/>
	</g>
	<g>
		
			<linearGradient id="SVGID_6_" gradientUnits="userSpaceOnUse" x1="1221.6248" y1="212.9846" x2="1267.507" y2="258.8669" gradientTransform="matrix(0.9147 -0.0168 -0.0168 0.9147 11.0173 123.5511)">
			<stop  offset="1.198083e-07" style="stop-color:#8B6AFF"/>
			<stop  offset="0.1315" style="stop-color:#926FFC"/>
			<stop  offset="0.3293" style="stop-color:#A77BF6"/>
			<stop  offset="0.5686" style="stop-color:#C990EA"/>
			<stop  offset="0.8383" style="stop-color:#F7ACDB"/>
			<stop  offset="0.8804" style="stop-color:#FFB1D8"/>
		</linearGradient>
		<path class="st5" d="M1148.21,353.92c-2.28,0-4.58-0.99-6.31-2.72L1112.7,322c-1.61-1.61-2.57-3.67-2.7-5.81
			c-0.13-2.11,0.56-4.04,1.96-5.44l25.79-25.79c1.27-1.27,3.03-1.97,4.94-1.97c2.28,0,4.58,0.99,6.3,2.72l29.21,29.21
			c1.61,1.61,2.57,3.67,2.7,5.81c0.13,2.11-0.56,4.04-1.96,5.44l-25.79,25.79C1151.88,353.22,1150.13,353.92,1148.21,353.92
			L1148.21,353.92z"/>
		<path d="M1142.69,283.49c2.15,0,4.32,0.94,5.95,2.57l29.21,29.21c3.11,3.11,3.44,7.84,0.74,10.54l-25.79,25.79
			c-1.18,1.18-2.81,1.83-4.59,1.83c-2.15,0-4.32-0.94-5.95-2.57l-29.21-29.21c-3.11-3.11-3.44-7.84-0.74-10.54l25.79-25.79
			C1139.28,284.13,1140.91,283.49,1142.69,283.49 M1142.69,282.49c-1.98,0-3.87,0.7-5.3,2.12l-25.79,25.79
			c-3.1,3.1-2.76,8.45,0.74,11.96l29.21,29.21c1.9,1.9,4.33,2.86,6.66,2.86c1.98,0,3.88-0.7,5.3-2.12l25.79-25.79
			c3.1-3.1,2.76-8.45-0.74-11.96l-29.21-29.21C1147.45,283.45,1145.02,282.49,1142.69,282.49L1142.69,282.49z"/>
	</g>
	<g>
		
			<linearGradient id="SVGID_7_" gradientUnits="userSpaceOnUse" x1="1080.1871" y1="429.0406" x2="1126.0693" y2="474.9229" gradientTransform="matrix(0.9147 -0.0168 -0.0168 0.9147 11.0173 123.5511)">
			<stop  offset="1.198083e-07" style="stop-color:#8B6AFF"/>
			<stop  offset="0.1315" style="stop-color:#926FFC"/>
			<stop  offset="0.3293" style="stop-color:#A77BF6"/>
			<stop  offset="0.5686" style="stop-color:#C990EA"/>
			<stop  offset="0.8383" style="stop-color:#F7ACDB"/>
			<stop  offset="0.8804" style="stop-color:#FFB1D8"/>
		</linearGradient>
		<path class="st6" d="M1015.21,553.92c-2.28,0-4.58-0.99-6.31-2.72L979.7,522c-1.61-1.61-2.57-3.67-2.7-5.81
			c-0.13-2.11,0.56-4.04,1.96-5.44l25.79-25.79c1.27-1.27,3.03-1.97,4.94-1.97c2.28,0,4.58,0.99,6.3,2.72l29.21,29.21
			c1.61,1.61,2.57,3.67,2.7,5.81c0.13,2.11-0.56,4.04-1.96,5.44l-25.79,25.79C1018.88,553.22,1017.13,553.92,1015.21,553.92
			L1015.21,553.92z"/>
		<path d="M1009.69,483.49c2.15,0,4.32,0.94,5.95,2.57l29.21,29.21c3.11,3.11,3.44,7.84,0.74,10.54l-25.79,25.79
			c-1.18,1.18-2.81,1.83-4.59,1.83c-2.15,0-4.32-0.94-5.95-2.57l-29.21-29.21c-3.11-3.11-3.44-7.84-0.74-10.54l25.79-25.79
			C1006.28,484.13,1007.91,483.49,1009.69,483.49 M1009.69,482.49c-1.98,0-3.87,0.7-5.3,2.12l-25.79,25.79
			c-3.1,3.1-2.76,8.45,0.74,11.96l29.21,29.21c1.9,1.9,4.33,2.86,6.66,2.86c1.98,0,3.87-0.7,5.3-2.12l25.79-25.79
			c3.1-3.1,2.76-8.45-0.74-11.96l-29.21-29.21C1014.45,483.45,1012.02,482.49,1009.69,482.49L1009.69,482.49z"/>
	</g>
	<g>
		
			<linearGradient id="SVGID_8_" gradientUnits="userSpaceOnUse" x1="335.5056" y1="747.161" x2="347.2799" y2="758.9353" gradientTransform="matrix(0.9155 0.0145 0.0145 0.9155 14.3684 87.0799)">
			<stop  offset="1.198083e-07" style="stop-color:#8B6AFF"/>
			<stop  offset="0.1315" style="stop-color:#926FFC"/>
			<stop  offset="0.3293" style="stop-color:#A77BF6"/>
			<stop  offset="0.5686" style="stop-color:#C990EA"/>
			<stop  offset="0.8383" style="stop-color:#F7ACDB"/>
			<stop  offset="0.8804" style="stop-color:#FFB1D8"/>
		</linearGradient>
		<path class="st7" d="M290.61,761.76c-2.38,0-4.82-1.08-6.7-2.96l-25.65-25.65c-3.43-3.43-3.95-8.5-1.15-11.29l21.15-21.15
			c1.16-1.16,2.79-1.8,4.59-1.8c2.38,0,4.82,1.08,6.7,2.96l25.65,25.65c3.43,3.43,3.95,8.5,1.15,11.29l-21.15,21.15
			C294.04,761.12,292.41,761.76,290.61,761.76C290.61,761.76,290.61,761.76,290.61,761.76z"/>
		<path d="M282.85,699.41c2.25,0,4.56,1.02,6.34,2.81l25.65,25.65c1.59,1.59,2.58,3.59,2.77,5.63c0.19,1.96-0.39,3.72-1.62,4.96
			l-21.15,21.15c-1.08,1.08-2.55,1.65-4.24,1.65c-2.25,0-4.56-1.02-6.34-2.81l-25.65-25.65c-1.59-1.59-2.58-3.59-2.77-5.63
			c-0.19-1.96,0.39-3.72,1.62-4.96l21.15-21.15C279.69,699.99,281.16,699.41,282.85,699.41 M282.85,698.41
			c-1.87,0-3.64,0.64-4.95,1.95l-21.15,21.15c-2.99,2.99-2.48,8.37,1.15,12l25.65,25.65c2.04,2.04,4.64,3.1,7.05,3.1
			c1.87,0,3.64-0.64,4.95-1.95l21.15-21.15c2.99-2.99,2.48-8.37-1.15-12l-25.65-25.65C287.86,699.47,285.26,698.41,282.85,698.41
			L282.85,698.41z"/>
	</g>
	<g>
		
			<linearGradient id="SVGID_9_" gradientUnits="userSpaceOnUse" x1="973.2556" y1="272.1071" x2="985.0573" y2="283.9088" gradientTransform="matrix(0.9155 0.0145 0.0145 0.9155 14.3684 87.0799)">
			<stop  offset="1.198083e-07" style="stop-color:#8B6AFF"/>
			<stop  offset="0.1315" style="stop-color:#926FFC"/>
			<stop  offset="0.3293" style="stop-color:#A77BF6"/>
			<stop  offset="0.5686" style="stop-color:#C990EA"/>
			<stop  offset="0.8383" style="stop-color:#F7ACDB"/>
			<stop  offset="0.8804" style="stop-color:#FFB1D8"/>
		</linearGradient>
		<path class="st8" d="M883.25,347.99c-2.38,0-4.82-1.08-6.7-2.95l-21.04-21.04c-1.67-1.67-2.71-3.78-2.92-5.93
			c-0.2-2.11,0.42-4.02,1.76-5.36l17.35-17.35c1.16-1.16,2.79-1.8,4.59-1.8c2.38,0,4.82,1.08,6.7,2.95l21.04,21.04
			c1.67,1.67,2.71,3.78,2.92,5.93c0.2,2.11-0.42,4.02-1.76,5.36l-17.35,17.35C886.69,347.35,885.06,347.99,883.25,347.99
			L883.25,347.99z"/>
		<path d="M876.3,294.04c2.25,0,4.56,1.02,6.34,2.81l21.04,21.04c3.24,3.24,3.75,7.98,1.15,10.58l-17.35,17.35
			c-1.08,1.08-2.55,1.65-4.24,1.65c-2.25,0-4.56-1.02-6.34-2.81l-21.04-21.04c-3.24-3.24-3.75-7.98-1.15-10.58l17.35-17.35
			C873.15,294.61,874.61,294.04,876.3,294.04 M876.3,293.04c-1.87,0-3.64,0.64-4.95,1.95L854,312.34c-2.99,2.99-2.48,8.37,1.15,12
			l21.04,21.04c2.04,2.04,4.64,3.1,7.05,3.1c1.87,0,3.64-0.64,4.95-1.95l17.35-17.35c2.99-2.99,2.48-8.37-1.15-12l-21.04-21.04
			C881.31,294.1,878.72,293.04,876.3,293.04L876.3,293.04z"/>
	</g>
	<g>
		
			<linearGradient id="SVGID_10_" gradientUnits="userSpaceOnUse" x1="797.7911" y1="429.4608" x2="809.7539" y2="441.4236" gradientTransform="matrix(0.9155 0.0145 0.0145 0.9155 14.3684 87.0799)">
			<stop  offset="1.198083e-07" style="stop-color:#8B6AFF"/>
			<stop  offset="0.1315" style="stop-color:#926FFC"/>
			<stop  offset="0.3293" style="stop-color:#A77BF6"/>
			<stop  offset="0.5686" style="stop-color:#C990EA"/>
			<stop  offset="0.8383" style="stop-color:#F7ACDB"/>
			<stop  offset="0.8804" style="stop-color:#FFB1D8"/>
		</linearGradient>
		<path class="st9" d="M878.44,631.64c-2.38,0-4.82-1.08-6.7-2.96l-7.23-7.23c-1.67-1.67-2.71-3.78-2.92-5.93
			c-0.2-2.12,0.42-4.02,1.76-5.36l5.96-5.96c1.16-1.16,2.79-1.8,4.59-1.8c2.38,0,4.82,1.08,6.7,2.96l7.23,7.23
			c3.43,3.43,3.95,8.5,1.15,11.29l-5.96,5.96C881.87,631,880.24,631.64,878.44,631.64L878.44,631.64z"/>
		<path d="M873.91,602.9c2.25,0,4.56,1.02,6.34,2.81l7.23,7.23c3.24,3.24,3.75,7.98,1.15,10.58l-5.96,5.96
			c-1.08,1.08-2.55,1.65-4.24,1.65c-2.25,0-4.56-1.02-6.34-2.81l-7.23-7.23c-1.59-1.59-2.58-3.59-2.77-5.63
			c-0.19-1.96,0.39-3.72,1.62-4.96l5.96-5.96C870.75,603.47,872.22,602.9,873.91,602.9 M873.91,601.9c-1.87,0-3.64,0.64-4.95,1.95
			l-5.96,5.96c-2.99,2.99-2.48,8.37,1.15,12l7.23,7.23c2.04,2.04,4.64,3.1,7.05,3.1c1.87,0,3.64-0.64,4.95-1.95l5.96-5.96
			c2.99-2.99,2.48-8.37-1.15-12l-7.23-7.23C878.92,602.96,876.32,601.9,873.91,601.9L873.91,601.9z"/>
	</g>
	<g>
		
			<linearGradient id="SVGID_11_" gradientUnits="userSpaceOnUse" x1="354.5078" y1="752.3207" x2="366.7058" y2="764.5188" gradientTransform="matrix(0.9155 0.0145 0.0145 0.9155 14.3684 87.0799)">
			<stop  offset="1.198083e-07" style="stop-color:#8B6AFF"/>
			<stop  offset="0.1315" style="stop-color:#926FFC"/>
			<stop  offset="0.3293" style="stop-color:#A77BF6"/>
			<stop  offset="0.5686" style="stop-color:#C990EA"/>
			<stop  offset="0.8383" style="stop-color:#F7ACDB"/>
			<stop  offset="0.8804" style="stop-color:#FFB1D8"/>
		</linearGradient>
		<path class="st10" d="M438.29,875.82c-2.38,0-4.82-1.08-6.7-2.96c-3.43-3.43-3.95-8.5-1.15-11.29c1.16-1.16,2.79-1.8,4.59-1.8
			c2.38,0,4.82,1.08,6.7,2.96c3.43,3.43,3.95,8.5,1.15,11.29C441.72,875.18,440.09,875.82,438.29,875.82
			C438.29,875.82,438.29,875.82,438.29,875.82z"/>
		<path d="M435.03,860.27c2.25,0,4.56,1.02,6.34,2.81c1.59,1.59,2.58,3.59,2.77,5.63c0.19,1.96-0.39,3.72-1.62,4.96
			c-1.08,1.08-2.55,1.65-4.24,1.65c-2.25,0-4.56-1.02-6.34-2.81c-3.24-3.24-3.75-7.98-1.15-10.58
			C431.87,860.84,433.34,860.27,435.03,860.27 M435.03,859.27c-1.87,0-3.64,0.64-4.95,1.95v0c-2.99,2.99-2.48,8.37,1.15,12h0
			c2.04,2.04,4.64,3.1,7.05,3.1c1.87,0,3.64-0.64,4.95-1.95c2.99-2.99,2.48-8.37-1.15-12h0
			C440.04,860.33,437.44,859.27,435.03,859.27L435.03,859.27z"/>
	</g>
	<g>
		
			<linearGradient id="SVGID_12_" gradientUnits="userSpaceOnUse" x1="426.0238" y1="714.9039" x2="437.962" y2="726.8422" gradientTransform="matrix(0.9155 0.0145 0.0145 0.9155 14.3684 87.0799)">
			<stop  offset="1.198083e-07" style="stop-color:#8B6AFF"/>
			<stop  offset="0.1315" style="stop-color:#926FFC"/>
			<stop  offset="0.3293" style="stop-color:#A77BF6"/>
			<stop  offset="0.5686" style="stop-color:#C990EA"/>
			<stop  offset="0.8383" style="stop-color:#F7ACDB"/>
			<stop  offset="0.8804" style="stop-color:#FFB1D8"/>
		</linearGradient>
		<path class="st11" d="M579.19,925.63c-2.38,0-4.82-1.08-6.7-2.96l-8.55-8.55c-3.43-3.43-3.95-8.5-1.15-11.29l7.05-7.05
			c1.16-1.16,2.79-1.8,4.59-1.8c2.38,0,4.82,1.08,6.7,2.96l8.55,8.55c1.67,1.67,2.71,3.78,2.92,5.93c0.2,2.11-0.42,4.02-1.76,5.36
			l-7.05,7.05C582.63,924.99,580.99,925.63,579.19,925.63C579.19,925.63,579.19,925.63,579.19,925.63z"/>
		<path d="M574.43,894.48c2.25,0,4.56,1.02,6.34,2.81l8.55,8.55c3.24,3.24,3.75,7.98,1.15,10.58l-7.05,7.05
			c-1.08,1.08-2.55,1.65-4.24,1.65c-2.25,0-4.56-1.02-6.34-2.81l-8.55-8.55c-1.59-1.59-2.58-3.59-2.77-5.63
			c-0.19-1.96,0.39-3.72,1.62-4.96l7.05-7.05C571.28,895.05,572.74,894.48,574.43,894.48 M574.43,893.48
			c-1.87,0-3.64,0.64-4.95,1.95l-7.05,7.05c-2.99,2.99-2.48,8.37,1.15,12l8.55,8.55c2.04,2.04,4.64,3.1,7.05,3.1
			c1.87,0,3.64-0.64,4.95-1.95l7.05-7.05c2.99-2.99,2.48-8.37-1.15-12l-8.55-8.55C579.44,894.54,576.85,893.48,574.43,893.48
			L574.43,893.48z"/>
	</g>
</g>
<g>
	<linearGradient id="SVGID_13_" gradientUnits="userSpaceOnUse" x1="593.0482" y1="538.0048" x2="590.0552" y2="532.8208">
		<stop  offset="0.29" style="stop-color:#000000;stop-opacity:0"/>
		<stop  offset="0.8804" style="stop-color:#000000"/>
	</linearGradient>
	<polygon class="st12" points="438.23,642.11 714.37,363.34 738.85,411 465.06,701.12 	"/>
	<path d="M714.24,364.18l24,46.74l-0.16,0.17L465.2,700.23l-26.08-57.39l-0.29-0.63L714.24,364.18 M714.5,362.5L437.64,642
		l0.57,1.26l26.15,57.52l0.55,1.22l273.9-290.22l0.65-0.69l-24.95-48.58L714.5,362.5L714.5,362.5z"/>
</g>
</svg>
